# xmcd
#
# Track frame offsets: 
#        150
#        18313
#        34505
#        56713
#        74037
#        94083
#        110251
#        134159
#        151156
#        168531
#
# Disc length: 2523 seconds
#
# Revision: 0
# Processed by: cddbd v1.5.2PL0 Copyright (c) Steve Scherf et al.
# Submitted via: ExactAudioCopy v0.99pb5
#
DISCID=8709d90a
DTITLE=Les Hommes Sauvages - Vive la Trance
DYEAR=2010
DGENRE=Blues
TTITLE0=Gottseidank nicht in England
TTITLE1=Jean Genet
TTITLE2=Astronomy
TTITLE3=Your Thunder and your Lightning
TTITLE4=La Rivière
TTITLE5=Nouveaux dans la Ville
TTITLE6=Dying on the Vine
TTITLE7=Sad and Lonesome
TTITLE8=Me and my Gun
TTITLE9=Halbe Nacht
EXTD=
EXTT0=
EXTT1=
EXTT2=
EXTT3=
EXTT4=
EXTT5=
EXTT6=
EXTT7=
EXTT8=
EXTT9=
PLAYORDER=
